<svg width="18" height="17" viewBox="0 0 18 17" fill="none" xmlns="http://www.w3.org/2000/svg">
<path d="M5.28846 13.6C4.35443 13.6 3.60636 14.3608 3.60636 15.3C3.60636 16.2393 4.35443 17 5.28846 17C6.2225 17 6.97902 16.2393 6.97902 15.3C6.97902 14.3608 6.2225 13.6 5.28846 13.6ZM0.216797 0V1.7H1.90735L4.94613 8.14725L3.805 10.2298C3.67398 10.4763 3.59791 10.7525 3.59791 11.05C3.59791 11.9893 4.35443 12.75 5.28846 12.75H15.4318V11.05H5.64771C5.52937 11.05 5.43639 10.9565 5.43639 10.8375C5.43639 10.7993 5.44484 10.7653 5.46175 10.7355L6.21827 9.35H12.5156C13.1495 9.35 13.7032 8.99725 13.9948 8.4745L17.0167 2.958C17.0843 2.839 17.1224 2.69875 17.1224 2.55C17.1224 2.32457 17.0333 2.10837 16.8748 1.94896C16.7163 1.78955 16.5013 1.7 16.2771 1.7H3.77964L2.97663 0H0.216797ZM13.7412 13.6C12.8072 13.6 12.0591 14.3608 12.0591 15.3C12.0591 16.2393 12.8072 17 13.7412 17C14.6753 17 15.4318 16.2393 15.4318 15.3C15.4318 14.3608 14.6753 13.6 13.7412 13.6Z" fill="white"/>
</svg>
