<svg width="17" height="17" viewBox="0 0 17 17" fill="none" xmlns="http://www.w3.org/2000/svg">
<path d="M9.04554 7.64989H4.27221C4.06122 7.64989 3.85886 7.73945 3.70967 7.89885C3.56047 8.05825 3.47666 8.27445 3.47666 8.49988C3.47666 8.72531 3.56047 8.94151 3.70967 9.10091C3.85886 9.26032 4.06122 9.34987 4.27221 9.34987H9.04554C9.25654 9.34987 9.45889 9.26032 9.60809 9.10091C9.75728 8.94151 9.8411 8.72531 9.8411 8.49988C9.8411 8.27445 9.75728 8.05825 9.60809 7.89885C9.45889 7.73945 9.25654 7.64989 9.04554 7.64989ZM12.2278 4.24994H4.27221C4.06122 4.24994 3.85886 4.33949 3.70967 4.4989C3.56047 4.6583 3.47666 4.8745 3.47666 5.09993C3.47666 5.32536 3.56047 5.54156 3.70967 5.70096C3.85886 5.86036 4.06122 5.94992 4.27221 5.94992H12.2278C12.4388 5.94992 12.6411 5.86036 12.7903 5.70096C12.9395 5.54156 13.0233 5.32536 13.0233 5.09993C13.0233 4.8745 12.9395 4.6583 12.7903 4.4989C12.6411 4.33949 12.4388 4.24994 12.2278 4.24994ZM13.8189 0H2.6811C2.04812 0 1.44106 0.268656 0.993472 0.746867C0.545885 1.22508 0.294434 1.87367 0.294434 2.54996V11.0498C0.294434 11.7261 0.545885 12.3747 0.993472 12.8529C1.44106 13.3312 2.04812 13.5998 2.6811 13.5998H11.9016L14.8451 16.7533C14.9195 16.832 15.0076 16.8944 15.1046 16.9367C15.2015 16.979 15.3053 17.0004 15.41 16.9998C15.5143 17.0026 15.6179 16.9793 15.7123 16.9318C15.8576 16.868 15.982 16.7597 16.0697 16.6206C16.1575 16.4814 16.2048 16.3176 16.2055 16.1498V2.54996C16.2055 1.87367 15.9541 1.22508 15.5065 0.746867C15.0589 0.268656 14.4519 0 13.8189 0ZM14.6144 14.1013L12.7926 12.1463C12.7183 12.0676 12.6301 12.0052 12.5332 11.9629C12.4363 11.9206 12.3325 11.8992 12.2278 11.8998H2.6811C2.47011 11.8998 2.26775 11.8103 2.11856 11.6509C1.96936 11.4915 1.88554 11.2753 1.88554 11.0498V2.54996C1.88554 2.32453 1.96936 2.10834 2.11856 1.94893C2.26775 1.78953 2.47011 1.69998 2.6811 1.69998H13.8189C14.0299 1.69998 14.2322 1.78953 14.3814 1.94893C14.5306 2.10834 14.6144 2.32453 14.6144 2.54996V14.1013Z" fill="white"/>
</svg>
