<svg width="76" height="76" viewBox="0 0 76 76" fill="none" xmlns="http://www.w3.org/2000/svg">
<g filter="url(#filter0_d_59_1012)">
<rect width="48" height="48" rx="24" transform="matrix(-1 0 0 1 62 10)" fill="white"/>
</g>
<g clip-path="url(#clip0_59_1012)">
<path d="M44.75 25H31.25C30.0091 25 29 26.0091 29 27.25V40.75C29 41.9909 30.0091 43 31.25 43H44.75C45.9909 43 47 41.9909 47 40.75V27.25C47 26.0091 45.9909 25 44.75 25Z" fill="#1976D2"/>
<path fill-rule="evenodd" clip-rule="evenodd" d="M44.1875 34H41.375V31.75C41.375 31.129 41.879 31.1875 42.5 31.1875H43.625V28.375H41.375C40.4799 28.375 39.6214 28.7306 38.9885 29.3635C38.3556 29.9964 38 30.8549 38 31.75V34H35.75V36.8125H38V43H41.375V36.8125H43.0625L44.1875 34Z" fill="#FAFAFA"/>
</g>
<defs>
<filter id="filter0_d_59_1012" x="0" y="0" width="76" height="76" filterUnits="userSpaceOnUse" color-interpolation-filters="sRGB">
<feFlood flood-opacity="0" result="BackgroundImageFix"/>
<feColorMatrix in="SourceAlpha" type="matrix" values="0 0 0 0 0 0 0 0 0 0 0 0 0 0 0 0 0 0 127 0" result="hardAlpha"/>
<feMorphology radius="4" operator="dilate" in="SourceAlpha" result="effect1_dropShadow_59_1012"/>
<feOffset dy="4"/>
<feGaussianBlur stdDeviation="5"/>
<feComposite in2="hardAlpha" operator="out"/>
<feColorMatrix type="matrix" values="0 0 0 0 0.960784 0 0 0 0 0.964706 0 0 0 0 0.964706 0 0 0 1 0"/>
<feBlend mode="normal" in2="BackgroundImageFix" result="effect1_dropShadow_59_1012"/>
<feBlend mode="normal" in="SourceGraphic" in2="effect1_dropShadow_59_1012" result="shape"/>
</filter>
<clipPath id="clip0_59_1012">
<rect width="18" height="18" fill="white" transform="translate(29 25)"/>
</clipPath>
</defs>
</svg>
