<svg width="76" height="76" viewBox="0 0 76 76" fill="none" xmlns="http://www.w3.org/2000/svg">
<g filter="url(#filter0_d_59_1009)">
<rect x="14" y="10" width="48" height="48" rx="24" fill="white"/>
</g>
<g clip-path="url(#clip0_59_1009)">
<path d="M46.9919 34.1686C46.9919 33.4312 46.9306 32.893 46.7981 32.335H38.1807V35.6634H43.2389C43.137 36.4906 42.5863 37.7363 41.3625 38.5734L41.3453 38.6848L44.07 40.7475L44.2588 40.7659C45.9924 39.2013 46.9919 36.8992 46.9919 34.1686Z" fill="#4285F4"/>
<path d="M38.1793 42.9384C40.6574 42.9384 42.7379 42.1411 44.2574 40.7659L41.3611 38.5734C40.5861 39.1015 39.5459 39.4703 38.1793 39.4703C35.7522 39.4703 33.6922 37.9057 32.9578 35.7432L32.8502 35.7521L30.017 37.8947L29.98 37.9954C31.4893 40.9252 34.5895 42.9384 38.1793 42.9384Z" fill="#34A853"/>
<path d="M32.9568 35.7431C32.7631 35.185 32.651 34.587 32.651 33.9692C32.651 33.3513 32.7631 32.7534 32.9467 32.1953L32.9415 32.0765L30.0729 29.8994L29.979 29.943C29.3569 31.1589 29 32.5242 29 33.9692C29 35.4142 29.3569 36.7795 29.979 37.9953L32.9568 35.7431Z" fill="#FBBC05"/>
<path d="M38.1793 28.468C39.9028 28.468 41.0654 29.1955 41.7283 29.8035L44.3186 27.332C42.7277 25.8869 40.6574 25 38.1793 25C34.5895 25 31.4893 27.013 29.98 29.9429L32.9476 32.1952C33.6922 30.0326 35.7522 28.468 38.1793 28.468Z" fill="#EB4335"/>
</g>
<defs>
<filter id="filter0_d_59_1009" x="0" y="0" width="76" height="76" filterUnits="userSpaceOnUse" color-interpolation-filters="sRGB">
<feFlood flood-opacity="0" result="BackgroundImageFix"/>
<feColorMatrix in="SourceAlpha" type="matrix" values="0 0 0 0 0 0 0 0 0 0 0 0 0 0 0 0 0 0 127 0" result="hardAlpha"/>
<feMorphology radius="4" operator="dilate" in="SourceAlpha" result="effect1_dropShadow_59_1009"/>
<feOffset dy="4"/>
<feGaussianBlur stdDeviation="5"/>
<feComposite in2="hardAlpha" operator="out"/>
<feColorMatrix type="matrix" values="0 0 0 0 0.960784 0 0 0 0 0.964706 0 0 0 0 0.964706 0 0 0 1 0"/>
<feBlend mode="normal" in2="BackgroundImageFix" result="effect1_dropShadow_59_1009"/>
<feBlend mode="normal" in="SourceGraphic" in2="effect1_dropShadow_59_1009" result="shape"/>
</filter>
<clipPath id="clip0_59_1009">
<rect width="18" height="18" fill="white" transform="translate(29 25)"/>
</clipPath>
</defs>
</svg>
