<svg width="14" height="13" viewBox="0 0 14 13" fill="none" xmlns="http://www.w3.org/2000/svg">
<path d="M6.61987 1.7149L6.99992 2.15946L7.37997 1.7149C8.01499 0.972099 8.99119 0.5 9.99992 0.5C11.7804 0.5 13.1666 1.88614 13.1666 3.66667C13.1666 4.76069 12.6784 5.79401 11.717 6.97024C10.7499 8.1533 9.35728 9.41895 7.63069 10.9863C7.63063 10.9863 7.63058 10.9864 7.63052 10.9865L6.99992 11.5583L6.36932 10.9865C4.64265 9.41904 3.24992 8.15334 2.28288 6.97024C1.32147 5.79401 0.833252 4.76069 0.833252 3.66667C0.833252 1.88614 2.21939 0.5 3.99992 0.5C5.00865 0.5 5.98484 0.972099 6.61987 1.7149Z" stroke="#647481"/>
</svg>
