<svg width="18" height="19" viewBox="0 0 18 19" fill="none" xmlns="http://www.w3.org/2000/svg">
<path d="M9 0C8.40326 0 7.83097 0.22242 7.40901 0.61833C6.98705 1.01424 6.75 1.55121 6.75 2.11111V2.47106C4.12875 3.34083 2.25 5.68733 2.25 8.44444V13.7222H1.125C0.826631 13.7222 0.540484 13.8334 0.329505 14.0314C0.118527 14.2293 0 14.4978 0 14.7778C0 15.0577 0.118527 15.3262 0.329505 15.5242C0.540484 15.7221 0.826631 15.8333 1.125 15.8333H16.875C17.1734 15.8333 17.4595 15.7221 17.6705 15.5242C17.8815 15.3262 18 15.0577 18 14.7778C18 14.4978 17.8815 14.2293 17.6705 14.0314C17.4595 13.8334 17.1734 13.7222 16.875 13.7222H15.75V8.44444C15.7502 7.13443 15.3175 5.85658 14.5116 4.78683C13.7057 3.71707 12.5662 2.90802 11.25 2.47106V2.11111C11.25 1.55121 11.0129 1.01424 10.591 0.61833C10.169 0.22242 9.59674 0 9 0ZM9 19C8.40326 19 7.83097 18.7776 7.40901 18.3817C6.98705 17.9858 6.75 17.4488 6.75 16.8889H11.25C11.25 17.4488 11.0129 17.9858 10.591 18.3817C10.169 18.7776 9.59674 19 9 19Z" fill="#FDCB30"/>
</svg>
