<svg width="14" height="14" viewBox="0 0 14 14" fill="none" xmlns="http://www.w3.org/2000/svg">
<path d="M6.99992 0.333496C5.68138 0.333496 4.39245 0.724489 3.29612 1.45703C2.19979 2.18957 1.34531 3.23077 0.840725 4.44894C0.336141 5.66711 0.204118 7.00756 0.461353 8.30077C0.718588 9.59397 1.35353 10.7819 2.28588 11.7142C3.21823 12.6466 4.40611 13.2815 5.69932 13.5387C6.99253 13.796 8.33297 13.6639 9.55114 13.1594C10.7693 12.6548 11.8105 11.8003 12.5431 10.704C13.2756 9.60764 13.6666 8.31871 13.6666 7.00016C13.6666 6.12468 13.4941 5.25778 13.1591 4.44894C12.8241 3.6401 12.333 2.90517 11.714 2.28612C11.0949 1.66706 10.36 1.176 9.55114 0.840966C8.74231 0.505935 7.8754 0.333496 6.99992 0.333496ZM6.99992 12.3335C5.94509 12.3335 4.91394 12.0207 4.03688 11.4347C3.15982 10.8486 2.47623 10.0157 2.07256 9.04114C1.6689 8.0666 1.56328 6.99425 1.76907 5.95968C1.97485 4.92512 2.48281 3.97481 3.22869 3.22893C3.97457 2.48305 4.92487 1.9751 5.95944 1.76931C6.99401 1.56352 8.06636 1.66914 9.0409 2.07281C10.0154 2.47647 10.8484 3.16006 11.4344 4.03712C12.0205 4.91418 12.3333 5.94533 12.3333 7.00016C12.3333 8.41465 11.7714 9.77121 10.7712 10.7714C9.77096 11.7716 8.41441 12.3335 6.99992 12.3335Z" fill="#E38B01"/>
<path d="M6.99982 3C6.82301 3 6.65344 3.07024 6.52841 3.19526C6.40339 3.32029 6.33315 3.48986 6.33315 3.66667V6.72667L4.52649 8.52667C4.4567 8.58643 4.40002 8.65998 4.36 8.74269C4.31999 8.8254 4.2975 8.91548 4.29395 9.0073C4.29041 9.09911 4.30588 9.19066 4.33939 9.27622C4.37291 9.36176 4.42375 9.43946 4.48872 9.50443C4.55369 9.5694 4.63139 9.62024 4.71694 9.65376C4.80249 9.68727 4.89404 9.70274 4.98585 9.6992C5.07767 9.69565 5.16776 9.67317 5.25047 9.63315C5.33318 9.59313 5.40672 9.53645 5.46649 9.46667L7.46649 7.46667C7.5921 7.34358 7.66398 7.17585 7.66649 7V3.66667C7.66649 3.48986 7.59625 3.32029 7.47122 3.19526C7.3462 3.07024 7.17663 3 6.99982 3Z" fill="#E38B01"/>
</svg>
