<svg width="19" height="16" viewBox="0 0 19 16" fill="none" xmlns="http://www.w3.org/2000/svg">
<path d="M9.67217 16C9.49903 16 9.35252 15.9375 9.23266 15.8125L2.99962 9.54167C2.93303 9.48611 2.84147 9.39583 2.72493 9.27083C2.60839 9.14583 2.4236 8.9184 2.17055 8.58854C1.9175 8.25868 1.69109 7.92014 1.49131 7.57292C1.29153 7.22569 1.1134 6.80556 0.956906 6.3125C0.800414 5.81944 0.722168 5.34028 0.722168 4.875C0.722168 3.34722 1.14503 2.15278 1.99075 1.29167C2.83647 0.430556 4.00517 0 5.49683 0C5.9097 0 6.3309 0.0746528 6.76042 0.223958C7.18994 0.373264 7.58949 0.574653 7.95908 0.828125C8.32867 1.0816 8.64665 1.31944 8.91302 1.54167C9.17939 1.76389 9.43244 2 9.67217 2.25C9.9119 2 10.165 1.76389 10.4313 1.54167C10.6977 1.31944 11.0157 1.0816 11.3853 0.828125C11.7548 0.574653 12.1544 0.373264 12.5839 0.223958C13.0134 0.0746528 13.4346 0 13.8475 0C15.3392 0 16.5079 0.430556 17.3536 1.29167C18.1993 2.15278 18.6222 3.34722 18.6222 4.875C18.6222 6.40972 17.8597 7.97222 16.3347 9.5625L10.1117 15.8125C9.99181 15.9375 9.84531 16 9.67217 16Z" fill="white"/>
</svg>
